<?xml version="1.0" encoding="iso-8859-1"?>
<!-- Generator: Adobe Illustrator 16.0.0, SVG Export Plug-In . SVG Version: 6.00 Build 0)  -->
<!DOCTYPE svg PUBLIC "-//W3C//DTD SVG 1.1//EN" "http://www.w3.org/Graphics/SVG/1.1/DTD/svg11.dtd">
<svg version="1.1" id="Capa_1" xmlns="http://www.w3.org/2000/svg" xmlns:xlink="http://www.w3.org/1999/xlink" x="0px" y="0px"
	 width="739.624px" height="739.623px" viewBox="0 0 739.624 739.623" style="enable-background:new 0 0 739.624 739.623;"
	 xml:space="preserve">
<g>
	<g>
		<g>
			<g>
				<path d="M667.35,735.824c-4.681,2.069-21.469,3.799-37.307,3.799H125.317c-15.873,0-32.66-1.696-37.307-3.799
					s-8.479-26.148-8.479-42.021V197.217c0-15.872,3.426-36.458,7.597-45.785c0,0,0,0,9.36,0c9.361,0,9.361,0,9.361,0
					c4.171,9.327,7.597,29.947,7.597,45.785V676.88c0,15.872,12.989,28.828,28.828,28.828h470.777
					c15.873,0,28.828-12.99,28.828-28.828V76.038c0-15.873-12.989-28.828-28.828-28.828H263.962
					c-15.873,0-36.459-3.425-45.786-7.597c0,0,0,0,0-9.361s0-9.361,0-9.361c9.327-4.171,29.947-7.597,45.786-7.597h366.047
					c15.872,0,32.66,1.696,37.307,3.798c4.646,2.103,8.479,26.149,8.479,42.021v634.757
					C675.829,709.676,671.997,733.756,667.35,735.824z"/>
			</g>
			<g>
				<path d="M82.21,186.907c0,0-5.969-1.933-13.261-4.273c0,0,0,0-2.543-6.478c-2.578-6.512-2.578-6.512-2.578-6.512
					c3.765-6.681,16.415-20.959,28.048-31.711l122.23-112.632C225.774,14.55,240.832,3.154,247.547,0c0,0,0,0,6.104,2.713
					c6.173,2.713,6.173,2.713,6.173,2.713c2.17,7.054,3.934,25.843,3.9,41.682l-0.238,93.504
					c-0.034,15.873-1.797,32.661-3.866,37.307c-2.069,4.646-26.081,8.513-41.953,8.546l-106.596,0.339
					C95.234,186.873,82.21,186.907,82.21,186.907z M229.708,85.839c0.034-15.872-9.497-20.044-21.163-9.292l-61.59,56.774
					c-11.633,10.717-8.207,19.501,7.665,19.433l46.057-0.135c15.873-0.034,28.862-13.058,28.896-28.93L229.708,85.839z"/>
			</g>
		</g>
	</g>
</g>
<g>
</g>
<g>
</g>
<g>
</g>
<g>
</g>
<g>
</g>
<g>
</g>
<g>
</g>
<g>
</g>
<g>
</g>
<g>
</g>
<g>
</g>
<g>
</g>
<g>
</g>
<g>
</g>
<g>
</g>
</svg>
